<svg xmlns="http://www.w3.org/2000/svg" viewBox="0 0 512 512">
  <rect width="512" height="512" rx="96" fill="#1a0a2e"/>
  <rect x="32" y="32" width="448" height="448" rx="72" fill="#2d1b4e" stroke="#7c3aed" stroke-width="8"/>
  <!-- GBA screen -->
  <rect x="96" y="80" width="320" height="200" rx="12" fill="#0a0a1a" stroke="#4c1d95" stroke-width="4"/>
  <rect x="108" y="92" width="296" height="176" rx="6" fill="#1a2040"/>
  <!-- Pixel checkmark inside screen -->
  <g fill="#22c55e">
    <rect x="168" y="180" width="24" height="24"/>
    <rect x="192" y="204" width="24" height="24"/>
    <rect x="216" y="228" width="24" height="24"/>
    <rect x="240" y="204" width="24" height="24"/>
    <rect x="264" y="180" width="24" height="24"/>
    <rect x="288" y="156" width="24" height="24"/>
    <rect x="312" y="132" width="24" height="24"/>
  </g>
  <!-- D-pad -->
  <rect x="108" y="330" width="72" height="24" rx="4" fill="#4c1d95"/>
  <rect x="120" y="318" width="48" height="48" rx="4" fill="#0000" stroke="none"/>
  <rect x="132" y="306" width="24" height="72" rx="4" fill="#4c1d95"/>
  <!-- A/B buttons -->
  <circle cx="368" cy="330" r="24" fill="#dc2626"/>
  <circle cx="320" cy="354" r="24" fill="#dc2626"/>
  <!-- EXP text -->
  <text x="256" y="440" text-anchor="middle" font-family="monospace" font-weight="bold" font-size="48" fill="#facc15" letter-spacing="4">EXP+</text>
</svg>
